  0
SECTION
  2
HEADER
  9
$ACADVER
  1
AC1009
  9
$INSBASE
 10
0.0
 20
0.0
 30
0.0
  9
$EXTMIN
 10
0.0
 20
0.0
 30
0.0
  9
$EXTMAX
 10
0.0
 20
0.0
 30
0.0
  0
ENDSEC
  0
SECTION
  2
TABLES
  0
TABLE
  2
VPORT
 70
0
  0
ENDTAB
  0
TABLE
  2
LTYPE
 70
1
  0
LTYPE
  2
CONTINUOUS
 70
0
  3
Solid line
 72
65
 73
0
 40
0.0
  0
ENDTAB
  0
TABLE
  2
LAYER
 70
1
  0
LAYER
  2
0
 70
64
 62
7
  6
continuous
  0
ENDTAB
  0
TABLE
  2
STYLE
 70
1
  0
STYLE
  2
STANDARD
 70
0
 40
0
 41
1.0
 50
0.0
 71
0
 42
1
 3
ARIAL.TTF
 4

  0
ENDTAB
  0
TABLE
  2
VIEW
 70
0
  0
ENDTAB
  0
ENDSEC
  0
SECTION
  2
BLOCKS
  0
BLOCK
  8
0
  2
SHAPE2DVIEW
 70
0
 10
0.0
 20
0.0
 30
0.0
  3
SHAPE2DVIEW
  0
LINE
  8
0
 62
0
 10
7.719999936618457
 20
6.19
 30
0.0
 11
6.7699999366184604
 21
6.19
 31
0.0
  0
LINE
  8
0
 62
0
 10
6.7699999366184604
 20
6.19
 30
0.0
 11
6.7699999366184604
 21
3.6900000000000004
 31
0.0
  0
LINE
  8
0
 62
0
 10
6.7699999366184604
 20
3.69
 30
0.0
 11
7.719999936618457
 21
3.69
 31
0.0
  0
LINE
  8
0
 62
0
 10
7.719999936618457
 20
3.69
 30
0.0
 11
7.719999936618457
 21
6.1899999999999995
 31
0.0
  0
LINE
  8
0
 62
0
 10
-6.570000063381489
 20
6.19
 30
0.0
 11
-7.720000063381484
 21
6.19
 31
0.0
  0
LINE
  8
0
 62
0
 10
-7.720000063381484
 20
6.19
 30
0.0
 11
-7.720000063381484
 21
3.99
 31
0.0
  0
LINE
  8
0
 62
0
 10
-7.720000063381484
 20
3.99
 30
0.0
 11
-6.570000063381489
 21
3.99
 31
0.0
  0
LINE
  8
0
 62
0
 10
-6.570000063381489
 20
3.99
 30
0.0
 11
-6.570000063381489
 21
6.19
 31
0.0
  0
LINE
  8
0
 62
0
 10
-7.320000063381486
 20
3.565
 30
0.0
 11
-7.320000063381486
 21
2.315
 31
0.0
  0
LINE
  8
0
 62
0
 10
-7.320000063381486
 20
2.315
 30
0.0
 11
-6.16000006338149
 21
2.315
 31
0.0
  0
LINE
  8
0
 62
0
 10
-6.16000006338149
 20
2.315
 30
0.0
 11
-6.16000006338149
 21
3.565
 31
0.0
  0
LINE
  8
0
 62
0
 10
-6.16000006338149
 20
3.565
 30
0.0
 11
-7.320000063381486
 21
3.565
 31
0.0
  0
LINE
  8
0
 62
0
 10
-6.16000006338149
 20
-5.46
 30
0.0
 11
-7.320000063381486
 21
-5.46
 31
0.0
  0
LINE
  8
0
 62
0
 10
-7.320000063381486
 20
-5.46
 30
0.0
 11
-7.320000063381486
 21
-6.66
 31
0.0
  0
LINE
  8
0
 62
0
 10
-7.320000063381486
 20
-6.66
 30
0.0
 11
-6.16000006338149
 21
-6.66
 31
0.0
  0
LINE
  8
0
 62
0
 10
-6.16000006338149
 20
-6.66
 30
0.0
 11
-6.16000006338149
 21
-5.46
 31
0.0
  0
LINE
  8
0
 62
0
 10
7.719999936618457
 20
-5.29
 30
0.0
 11
6.569999936618462
 21
-5.29
 31
0.0
  0
LINE
  8
0
 62
0
 10
6.569999936618462
 20
-5.29
 30
0.0
 11
6.569999936618462
 21
-7.49
 31
0.0
  0
LINE
  8
0
 62
0
 10
6.569999936618462
 20
-7.49
 30
0.0
 11
7.719999936618457
 21
-7.49
 31
0.0
  0
LINE
  8
0
 62
0
 10
7.719999936618457
 20
-7.49
 30
0.0
 11
7.719999936618457
 21
-5.29
 31
0.0
  0
LINE
  8
0
 62
0
 10
3.589999936618473
 20
-6.61
 30
0.0
 11
2.089999936618479
 21
-6.61
 31
0.0
  0
LINE
  8
0
 62
0
 10
2.089999936618479
 20
-6.61
 30
0.0
 11
2.089999936618479
 21
-7.76
 31
0.0
  0
LINE
  8
0
 62
0
 10
2.089999936618479
 20
-7.76
 30
0.0
 11
3.589999936618473
 21
-7.76
 31
0.0
  0
LINE
  8
0
 62
0
 10
3.589999936618473
 20
-7.76
 30
0.0
 11
3.589999936618473
 21
-6.609999999999999
 31
0.0
  0
LINE
  8
0
 62
0
 10
-4.190000063381498
 20
-6.61
 30
0.0
 11
-5.690000063381492
 21
-6.61
 31
0.0
  0
LINE
  8
0
 62
0
 10
-5.6900000633814924
 20
-6.61
 30
0.0
 11
-5.6900000633814924
 21
-7.76
 31
0.0
  0
LINE
  8
0
 62
0
 10
-5.6900000633814924
 20
-7.76
 30
0.0
 11
-4.190000063381499
 21
-7.76
 31
0.0
  0
LINE
  8
0
 62
0
 10
-4.190000063381498
 20
-7.76
 30
0.0
 11
-4.190000063381498
 21
-6.609999999999999
 31
0.0
  0
LINE
  8
0
 62
0
 10
-5.200000063381494
 20
6.19
 30
0.0
 11
-5.200000063381494
 21
4.95
 31
0.0
  0
LINE
  8
0
 62
0
 10
-5.200000063381494
 20
4.95
 30
0.0
 11
-4.400000063381497
 21
4.95
 31
0.0
  0
LINE
  8
0
 62
0
 10
-4.400000063381497
 20
4.95
 30
0.0
 11
-4.400000063381497
 21
6.19
 31
0.0
  0
LINE
  8
0
 62
0
 10
-4.400000063381497
 20
6.19
 30
0.0
 11
-5.200000063381494
 21
6.19
 31
0.0
  0
LINE
  8
0
 62
0
 10
-4.100000063381498
 20
6.19
 30
0.0
 11
-4.100000063381498
 21
4.95
 31
0.0
  0
LINE
  8
0
 62
0
 10
-4.100000063381498
 20
4.95
 30
0.0
 11
-3.3000000633815008
 21
4.95
 31
0.0
  0
LINE
  8
0
 62
0
 10
-3.3000000633815003
 20
4.95
 30
0.0
 11
-3.3000000633815003
 21
6.19
 31
0.0
  0
LINE
  8
0
 62
0
 10
-3.3000000633815003
 20
6.19
 30
0.0
 11
-4.100000063381497
 21
6.19
 31
0.0
  0
LINE
  8
0
 62
0
 10
-3.0000000633815014
 20
6.19
 30
0.0
 11
-3.0000000633815014
 21
4.95
 31
0.0
  0
LINE
  8
0
 62
0
 10
-3.0000000633815014
 20
4.95
 30
0.0
 11
-2.2000000633815042
 21
4.95
 31
0.0
  0
LINE
  8
0
 62
0
 10
-2.2000000633815047
 20
4.95
 30
0.0
 11
-2.2000000633815047
 21
6.19
 31
0.0
  0
LINE
  8
0
 62
0
 10
-2.2000000633815047
 20
6.19
 30
0.0
 11
-3.000000063381502
 21
6.19
 31
0.0
  0
LINE
  8
0
 62
0
 10
-1.9000000633815057
 20
6.19
 30
0.0
 11
-1.9000000633815057
 21
4.95
 31
0.0
  0
LINE
  8
0
 62
0
 10
-1.9000000633815057
 20
4.95
 30
0.0
 11
-1.1000000633815086
 21
4.95
 31
0.0
  0
LINE
  8
0
 62
0
 10
-1.1000000633815088
 20
4.95
 30
0.0
 11
-1.1000000633815088
 21
6.19
 31
0.0
  0
LINE
  8
0
 62
0
 10
-1.1000000633815088
 20
6.19
 30
0.0
 11
-1.9000000633815057
 21
6.19
 31
0.0
  0
LINE
  8
0
 62
0
 10
-0.8000000633815101
 20
6.19
 30
0.0
 11
-0.8000000633815101
 21
4.95
 31
0.0
  0
LINE
  8
0
 62
0
 10
-0.8000000633815101
 20
4.95
 30
0.0
 11
-6.338151303797446e-08
 21
4.95
 31
0.0
  0
LINE
  8
0
 62
0
 10
-6.338151301576975e-08
 20
4.95
 30
0.0
 11
-6.338151301576975e-08
 21
6.19
 31
0.0
  0
LINE
  8
0
 62
0
 10
-6.338151301576975e-08
 20
6.19
 30
0.0
 11
-0.8000000633815101
 21
6.19
 31
0.0
  0
LINE
  8
0
 62
0
 10
0.29999993661848584
 20
6.19
 30
0.0
 11
0.29999993661848584
 21
4.95
 31
0.0
  0
LINE
  8
0
 62
0
 10
0.29999993661848584
 20
4.95
 30
0.0
 11
1.099999936618483
 21
4.95
 31
0.0
  0
LINE
  8
0
 62
0
 10
1.099999936618483
 20
4.95
 30
0.0
 11
1.099999936618483
 21
6.19
 31
0.0
  0
LINE
  8
0
 62
0
 10
1.099999936618483
 20
6.19
 30
0.0
 11
0.2999999366184859
 21
6.19
 31
0.0
  0
LINE
  8
0
 62
0
 10
1.3999999366184817
 20
6.19
 30
0.0
 11
1.3999999366184817
 21
4.95
 31
0.0
  0
LINE
  8
0
 62
0
 10
1.3999999366184817
 20
4.95
 30
0.0
 11
2.199999936618479
 21
4.95
 31
0.0
  0
LINE
  8
0
 62
0
 10
2.199999936618479
 20
4.95
 30
0.0
 11
2.199999936618479
 21
6.19
 31
0.0
  0
LINE
  8
0
 62
0
 10
2.199999936618479
 20
6.19
 30
0.0
 11
1.3999999366184817
 21
6.19
 31
0.0
  0
LINE
  8
0
 62
0
 10
2.4999999366184777
 20
6.19
 30
0.0
 11
2.4999999366184777
 21
4.95
 31
0.0
  0
LINE
  8
0
 62
0
 10
2.4999999366184777
 20
4.95
 30
0.0
 11
3.299999936618475
 21
4.95
 31
0.0
  0
LINE
  8
0
 62
0
 10
3.2999999366184745
 20
4.95
 30
0.0
 11
3.2999999366184745
 21
6.19
 31
0.0
  0
LINE
  8
0
 62
0
 10
3.2999999366184745
 20
6.19
 30
0.0
 11
2.4999999366184773
 21
6.19
 31
0.0
  0
ENDBLK
  0
ENDSEC
  0
SECTION
  2
ENTITIES
  0
INSERT
  2
SHAPE2DVIEW
  8
0
 62
0
 10
0.0
 20
0.0
 30
0.0
  0
ENDSEC
  0
EOF
